<?xml version="1.0" encoding="UTF-8"?>
<svg version="1.1" xmlns="http://www.w3.org/2000/svg" width="128" height="128">
<path d="M0 0 C2.42346838 0.88828837 3.63325829 1.71252751 5.40574646 3.56292725 C6.19368591 4.37020264 6.19368591 4.37020264 6.99754333 5.19378662 C7.52799255 5.75775146 8.05844177 6.32171631 8.60496521 6.902771 C9.15475037 7.47060303 9.70453552 8.03843506 10.27098083 8.62347412 C11.62073886 10.02018025 12.95788046 11.42905937 14.29246521 12.840271 C14.95246521 10.530271 15.61246521 8.220271 16.29246521 5.840271 C18.93836535 5.81342421 21.58399617 5.79350743 24.22996521 5.777771 C25.36208435 5.76520264 25.36208435 5.76520264 26.51707458 5.75238037 C28.44240834 5.74374659 30.36782102 5.78802767 32.29246521 5.840271 C32.78746521 6.335271 32.78746521 6.335271 33.29246521 6.840271 C33.26710224 8.59410164 33.18569805 10.34716552 33.08152771 12.0980835 C32.22650888 25.77933624 32.22650888 25.77933624 37.72996521 37.762146 C40.90406399 40.98172983 44.34986493 43.81829499 48.04490662 46.42181396 C48.66244812 47.1239502 48.66244812 47.1239502 49.29246521 47.840271 C48.96246521 49.160271 48.63246521 50.480271 48.29246521 51.840271 C45.32246521 51.840271 42.35246521 51.840271 39.29246521 51.840271 C39.29246521 53.820271 39.29246521 55.800271 39.29246521 57.840271 C39.95246521 57.840271 40.61246521 57.840271 41.29246521 57.840271 C44.25196296 62.92690775 46.07599884 66.79586873 45.29246521 72.840271 C43.93431268 76.11218392 42.79351015 78.33922606 40.29246521 80.840271 C40.00078841 84.23332141 39.87712859 87.58411492 39.81394958 90.98675537 C39.61283701 96.33831194 39.61283701 96.33831194 38.20701599 98.54095459 C35.28490922 100.5240523 32.7166457 100.28059384 29.21824646 100.35198975 C28.53441391 100.36994095 27.85058136 100.38789215 27.14602661 100.40638733 C24.96573521 100.46049175 22.78566265 100.4943844 20.60496521 100.527771 C19.12511704 100.56094419 17.64529776 100.59543386 16.16551208 100.63128662 C12.54137352 100.71621623 8.91715869 100.78302734 5.29246521 100.840271 C4.96246521 101.500271 4.63246521 102.160271 4.29246521 102.840271 C0.99246521 102.840271 -2.30753479 102.840271 -5.70753479 102.840271 C-5.70753479 101.850271 -5.70753479 100.860271 -5.70753479 99.840271 C-6.66119934 99.85598145 -7.61486389 99.87169189 -8.59742737 99.88787842 C-12.13640392 99.94218778 -15.67534365 99.97662433 -19.21461487 100.00506592 C-20.7462534 100.02015036 -22.27784877 100.04062078 -23.80934143 100.06658936 C-26.01119133 100.10298947 -28.21247012 100.12000013 -30.41456604 100.13323975 C-31.09904312 100.1487236 -31.7835202 100.16420746 -32.48873901 100.18016052 C-37.24444986 100.18184314 -37.24444986 100.18184314 -39.39112854 98.59844971 C-41.0637067 96.36457144 -41.07141084 95.14152143 -41.04811096 92.36883545 C-41.04788437 91.4681282 -41.04765778 90.56742096 -41.04742432 89.63941956 C-41.03194046 88.67058334 -41.0164566 87.70174713 -41.00050354 86.70355225 C-40.9962587 85.70897507 -40.99201385 84.71439789 -40.98764038 83.68968201 C-40.97083632 80.51043725 -40.93318055 77.33182443 -40.89503479 74.152771 C-40.8799902 71.99848327 -40.86630141 69.84418562 -40.85401917 67.68988037 C-40.82092706 62.40643344 -40.7691325 57.12345939 -40.70753479 51.840271 C-43.67753479 51.840271 -46.64753479 51.840271 -49.70753479 51.840271 C-50.03753479 50.520271 -50.36753479 49.200271 -50.70753479 47.840271 C-49.03916931 45.53025818 -49.03916931 45.53025818 -46.49415588 42.96405029 C-45.80416504 42.25850761 -45.80416504 42.25850761 -45.10023499 41.53871155 C-43.57300568 39.98433319 -42.02803063 38.44911598 -40.48097229 36.91448975 C-39.41468636 35.84229811 -38.34907191 34.7694383 -37.28410339 33.69593811 C-35.04755459 31.44749439 -32.80193311 29.20861914 -30.54981995 26.97576904 C-27.66241708 24.11124495 -24.80056919 21.22264382 -21.94527245 18.32615948 C-19.74942375 16.10475237 -17.53969548 13.89757927 -15.32559586 11.69437599 C-14.26448914 10.63475806 -13.2079714 9.57052426 -12.15615463 8.50168419 C-10.6838232 7.00942096 -9.19368228 5.53759066 -7.69728088 4.06951904 C-6.4303389 2.80521309 -6.4303389 2.80521309 -5.13780212 1.5153656 C-2.70753479 -0.159729 -2.70753479 -0.159729 0 0 Z M-3.65641785 4.54191589 C-4.45139679 5.33831985 -5.24637573 6.13472382 -6.06544495 6.95526123 C-6.96622772 7.85296738 -7.8670105 8.75067352 -8.79508972 9.67558289 C-9.77910662 10.66649709 -10.76293807 11.65759548 -11.74659729 12.64886475 C-12.75228549 13.6557444 -13.75834291 14.6622554 -14.76475525 15.66841125 C-16.87444577 17.77966772 -18.98072758 19.89424822 -21.08448792 22.01141357 C-23.78762719 24.73155372 -26.49731375 27.44505351 -29.20934486 30.15632534 C-31.28733957 32.23459134 -33.36272244 34.31544864 -35.43722153 36.39720345 C-36.43581584 37.39899029 -37.43502614 38.40016349 -38.43484879 39.40072441 C-39.82856242 40.79659481 -41.21858653 42.19614614 -42.6084137 43.59588623 C-43.40180145 44.39308578 -44.19518921 45.19028534 -45.01261902 46.01164246 C-46.82083211 47.54695383 -46.82083211 47.54695383 -46.70753479 48.840271 C-42.60915262 49.44201758 -40.07144045 49.75083125 -36.5561676 47.4039917 C-34.21136564 45.26947753 -32.01527627 43.04660801 -29.83253479 40.746521 C-29.02260071 39.92526733 -28.21266663 39.10401367 -27.37818909 38.25787354 C-24.8018898 35.63688055 -22.25482616 32.9894348 -19.70753479 30.340271 C-17.96329911 28.55590074 -16.21722485 26.77332573 -14.46925354 24.99261475 C-10.19381394 20.62908799 -5.94203207 16.24352061 -1.70753479 11.840271 C1.4268453 13.22354758 3.47407047 14.8073303 5.83250427 17.2802124 C6.50710693 17.98078766 7.18170959 18.68136292 7.87675476 19.40316772 C8.59659546 20.15842743 9.31643616 20.91368713 10.05809021 21.6918335 C11.60274897 23.28126408 13.1483515 24.86977792 14.69480896 26.4574585 C17.12461949 28.96149549 19.54775984 31.47082601 21.95506287 33.996521 C24.2837067 36.43419354 26.63701892 38.84565269 28.99559021 41.2543335 C30.06320587 42.39329575 30.06320587 42.39329575 31.15238953 43.55526733 C34.8080858 47.38579041 34.8080858 47.38579041 39.5877533 49.30578613 C42.02945424 49.36666031 42.02945424 49.36666031 45.29246521 48.840271 C40.54923837 43.14335685 35.48222956 37.86920952 30.24559021 32.62542725 C29.39317749 31.76968613 28.54076477 30.91394501 27.66252136 30.03227234 C25.87202432 28.23673797 24.08019229 26.44253395 22.28709412 24.64959717 C19.53209589 21.89239337 16.78521272 19.1272688 14.03855896 16.36175537 C12.29555849 14.61582423 10.5520857 12.87036447 8.80809021 11.12542725 C7.98415771 10.29430923 7.16022522 9.46319122 6.31132507 8.60688782 C5.55003296 7.84867233 4.78874084 7.09045685 4.00437927 6.30926514 C3.33408691 5.63754776 2.66379456 4.96583038 1.97319031 4.27375793 C-0.52657387 2.14171427 -1.20480883 2.40132159 -3.65641785 4.54191589 Z M18.29246521 8.840271 C17.63711796 12.47446941 17.36040049 14.33250053 18.29246521 17.840271 C21.5700556 21.97703557 25.24521229 25.46229859 29.29246521 28.840271 C29.62246521 28.840271 29.95246521 28.840271 30.29246521 28.840271 C30.29246521 22.240271 30.29246521 15.640271 30.29246521 8.840271 C26.33246521 8.840271 22.37246521 8.840271 18.29246521 8.840271 Z M-24.92481995 33.80462646 C-35.44999203 44.45499076 -40.21057255 53.26594638 -40.33204651 68.36883545 C-40.76237942 83.60661635 -40.76237942 83.60661635 -35.70753479 96.840271 C-31.52503602 97.3561896 -27.33550334 97.38228892 -23.12379456 97.43060303 C-21.042858 97.46489489 -18.96841035 97.55257416 -16.88917542 97.64105225 C-9.80363562 97.92676404 -9.80363562 97.92676404 -3.45094299 95.2567749 C-1.69497232 93.20711326 -0.22457911 91.07017934 1.29246521 88.840271 C2.50661172 87.64021423 3.7560741 86.47481353 5.03855896 85.3480835 C11.92799507 79.58732195 11.92799507 79.58732195 16.05418396 71.96136475 C15.96268464 69.42441967 15.96268464 69.42441967 15.54246521 67.027771 C15.0824122 63.0023072 16.86791799 60.96666083 19.29246521 57.840271 C24.4715461 53.92438056 30.0906076 54.54231698 36.29246521 54.840271 C36.55826184 51.90633701 36.63660453 50.34074098 34.93922424 47.87229919 C34.30572052 47.24386612 33.6722168 46.61543304 33.01951599 45.96795654 C32.3052243 45.24758713 31.59093262 44.52721771 30.85499573 43.78501892 C30.07381378 43.02336929 29.29263184 42.26171967 28.48777771 41.47698975 C27.69346344 40.68500687 26.89914917 39.89302399 26.08076477 39.07704163 C24.40017927 37.40619808 22.71357469 35.74139021 21.02146912 34.08221436 C18.42235295 31.53256571 15.84243964 28.9646683 13.26512146 26.39300537 C11.63209838 24.77406508 9.99801926 23.15618919 8.36277771 21.53948975 C7.58564423 20.76771896 6.80851074 19.99594818 6.00782776 19.20079041 C5.28723175 18.49618179 4.56663574 17.79157318 3.82420349 17.06561279 C3.18910858 16.44115768 2.55401367 15.81670258 1.89967346 15.17332458 C-3.99023007 10.28811009 -20.60923341 29.6852456 -24.92481995 33.80462646 Z M20.29246521 60.840271 C17.46835372 64.68106262 16.94631642 67.29768664 17.10496521 72.027771 C17.13203552 73.07320068 17.15910583 74.11863037 17.18699646 75.19573975 C17.23920349 76.50478271 17.23920349 76.50478271 17.29246521 77.840271 C17.29246521 81.35129385 14.11638571 83.31494524 11.75144958 85.70355225 C11.00185974 86.44991943 10.2522699 87.19628662 9.47996521 87.965271 C8.37298279 89.09642334 8.37298279 89.09642334 7.24363708 90.25042725 C6.17532654 91.31970459 6.17532654 91.31970459 5.08543396 92.4105835 C4.43083191 93.0681665 3.77622986 93.72574951 3.10179138 94.40325928 C1.29246521 95.840271 1.29246521 95.840271 -1.70753479 95.840271 C-2.03753479 97.490271 -2.36753479 99.140271 -2.70753479 100.840271 C0.24223281 100.49739203 1.88926593 100.21299085 4.10105896 98.168396 C4.63859802 97.48261475 5.17613708 96.7968335 5.72996521 96.090271 C10.01115105 90.89898491 14.45298117 87.24663669 20.29246521 83.840271 C20.95246521 83.180271 21.61246521 82.520271 22.29246521 81.840271 C24.46434021 81.75042725 24.46434021 81.75042725 27.04246521 81.902771 C32.50865612 82.00531137 35.9716315 80.92101846 40.10496521 77.215271 C41.95174369 73.52171404 42.52853387 69.96074215 42.29246521 65.840271 C40.16594348 61.42364893 37.83524179 58.7418984 33.29246521 56.840271 C27.61843069 56.11812115 24.65196913 57.17432452 20.29246521 60.840271 Z M19.29246521 87.840271 C18.08590271 88.3043335 18.08590271 88.3043335 16.85496521 88.777771 C13.52030844 90.16043356 11.65118598 92.14459011 9.29246521 94.840271 C9.29246521 95.500271 9.29246521 96.160271 9.29246521 96.840271 C13.41740672 96.89811807 17.54224465 96.93381507 21.66746521 96.965271 C22.84309021 96.98202881 24.01871521 96.99878662 25.22996521 97.01605225 C26.35144958 97.02249756 27.47293396 97.02894287 28.62840271 97.0355835 C29.66529236 97.04605713 30.70218201 97.05653076 31.77049255 97.06732178 C34.46355144 97.09642126 34.46355144 97.09642126 36.29246521 94.840271 C36.53562177 92.17077691 36.53562177 92.17077691 36.41746521 89.215271 C36.39941833 88.21238037 36.38137146 87.20948975 36.36277771 86.1762085 C36.33957458 85.40534912 36.31637146 84.63448975 36.29246521 83.840271 C34.21028159 83.7319493 32.12647392 83.65453558 30.04246521 83.590271 C28.88230896 83.54386475 27.72215271 83.4974585 26.52684021 83.449646 C22.66266823 83.91633343 21.74905558 84.94005257 19.29246521 87.840271 Z " fill="#FC6B22" transform="translate(64.70753479003906,13.15972900390625)"/>
<path d="M0 0 C8.91 0 17.82 0 27 0 C27 8.91 27 17.82 27 27 C18.09 27 9.18 27 0 27 C0 18.09 0 9.18 0 0 Z M3 3 C3 6.3 3 9.6 3 13 C6.3 13 9.6 13 13 13 C13 9.7 13 6.4 13 3 C9.7 3 6.4 3 3 3 Z M15 3 C15 6.3 15 9.6 15 13 C17.97 13 20.94 13 24 13 C24 9.7 24 6.4 24 3 C21.03 3 18.06 3 15 3 Z M3 15 C3 17.97 3 20.94 3 24 C6.3 24 9.6 24 13 24 C13 21.03 13 18.06 13 15 C9.7 15 6.4 15 3 15 Z M15 15 C15 17.97 15 20.94 15 24 C17.97 24 20.94 24 24 24 C24 21.03 24 18.06 24 15 C21.03 15 18.06 15 15 15 Z " fill="#FD6B22" transform="translate(37,67)"/>
<path d="M0 0 C3.625 0.375 3.625 0.375 7 1 C8.32278481 6.41139241 8.32278481 6.41139241 6.9375 8.9375 C4.08906752 10.49954362 2.06495097 9.74921024 -1 9 C-1.625 5.625 -1.625 5.625 -2 2 C-1.34 1.34 -0.68 0.68 0 0 Z M2 3 C2 4.32 2 5.64 2 7 C2.99 6.67 3.98 6.34 5 6 C4.67 5.01 4.34 4.02 4 3 C3.34 3 2.68 3 2 3 Z " fill="#FC6B22" transform="translate(95,74)"/>
</svg>
