<svg xmlns="http://www.w3.org/2000/svg" version="1.1" xmlns:xlink="http://www.w3.org/1999/xlink" xmlns:svgjs="http://svgjs.dev/svgjs" width="2000" height="2050" viewBox="0 0 2000 2050"><g transform="matrix(1,0,0,1,0.3898305084748017,0.5717848140498063)"><svg viewBox="0 0 236 242" data-background-color="#ffffff" preserveAspectRatio="xMidYMid meet" height="2050" width="2000" xmlns="http://www.w3.org/2000/svg" xmlns:xlink="http://www.w3.org/1999/xlink"><g id="tight-bounds" transform="matrix(1,0,0,1,-0.04554000000001679,-0.06742850000003386)"><svg viewBox="0 0 236.09108 242.134927" height="242.134927" width="236.09108"><g><svg></svg></g><g><svg viewBox="0 0 236.09108 242.134927" height="242.134927" width="236.09108"><g transform="matrix(1,0,0,1,-79.71446,-5.0650699999999915)"><path d="M79.714 242.135v-237.07h236.092v237.07l-36.886 0 0-2.491h34.394v-232.088h-231.108v232.088h34.394l0 2.491z" fill="#264f0b" fill-rule="nonzero" stroke="none" stroke-width="1" stroke-linecap="butt" stroke-linejoin="miter" stroke-miterlimit="10" stroke-dasharray="" stroke-dashoffset="0" font-family="none" font-weight="none" font-size="none" text-anchor="none" style="mix-blend-mode: normal" data-fill-palette-color="tertiary"></path><g><path transform="translate(122.23357,246.8406) scale(0.42282,0.42282)" d="M25.8 0l-8.5-14.3h-5v14.3h-7.95v-37.9h14.8c9.3 0 13.95 3.95 13.95 11.85v0c0 5.8-2.583 9.467-7.75 11v0l9.35 15.05zM12.3-31.15v10.1h6.85c3.933 0 5.9-1.667 5.9-5v0c0-1.767-0.483-3.06-1.45-3.88-0.967-0.813-2.45-1.22-4.45-1.22v0zM46.8-11.95c0.6 4.233 3.233 6.35 7.9 6.35v0c1.267 0 2.51-0.167 3.73-0.5 1.213-0.333 2.587-0.867 4.12-1.6v0l2.05 6c-1.7 0.933-3.39 1.593-5.07 1.98-1.687 0.38-3.63 0.57-5.83 0.57v0c-3.2 0-5.933-0.627-8.2-1.88-2.267-1.247-3.983-2.997-5.15-5.25-1.167-2.247-1.75-4.853-1.75-7.82v0c0-3.133 0.6-5.817 1.8-8.05 1.2-2.233 2.833-3.927 4.9-5.08 2.067-1.147 4.367-1.72 6.9-1.72v0c4.033 0 7.193 1.183 9.48 3.55 2.28 2.367 3.42 5.833 3.42 10.4v0 3.05zM52.2-22.5c-1.4 0-2.54 0.367-3.42 1.1-0.887 0.733-1.497 1.933-1.83 3.6v0h10.1c-0.167-1.633-0.65-2.827-1.45-3.58-0.8-0.747-1.933-1.12-3.4-1.12zM86.3-28.75c3.667 0 6.41 0.94 8.23 2.82 1.813 1.887 2.72 4.897 2.72 9.03v0 16.9h-7.7v-16.9c0-1.667-0.367-2.91-1.1-3.73-0.733-0.813-2-1.22-3.8-1.22v0c-2.133 0-4.267 0.883-6.4 2.65v0 19.2h-7.7v-28.15h7.7v2.45c2.467-2.033 5.15-3.05 8.05-3.05zM120.25-20.45h-6.4v11.1c0 1.167 0.193 1.983 0.58 2.45 0.38 0.467 1.07 0.7 2.07 0.7v0c1.067 0 2.083-0.133 3.05-0.4v0 6.6c-1.933 0.433-3.617 0.65-5.05 0.65v0c-2.867 0-4.973-0.617-6.32-1.85-1.353-1.233-2.03-3.067-2.03-5.5v0-13.75h-3.8v-6.85h3.8v-9.5h7.7v9.5h6.4zM137.25 0v-37.9h7.95v37.9zM169.05-28.75c3.667 0 6.41 0.94 8.23 2.82 1.813 1.887 2.72 4.897 2.72 9.03v0 16.9h-7.7v-16.9c0-1.667-0.367-2.91-1.1-3.73-0.733-0.813-2-1.22-3.8-1.22v0c-2.133 0-4.267 0.883-6.4 2.65v0 19.2h-7.7v-28.15h7.7v2.45c2.467-2.033 5.15-3.05 8.05-3.05zM225.7-37.9v6.85h-10.6v31.05h-8v-31.05h-10.6v-6.85zM244.5 0.85c-3.167 0-5.867-0.65-8.1-1.95-2.233-1.3-3.907-3.077-5.02-5.33-1.12-2.247-1.68-4.787-1.68-7.62v0c0-2.8 0.56-5.327 1.68-7.58 1.113-2.247 2.787-4.03 5.02-5.35 2.233-1.313 4.933-1.97 8.1-1.97v0c3.167 0 5.85 0.657 8.05 1.97 2.2 1.32 3.86 3.103 4.98 5.35 1.113 2.253 1.67 4.78 1.67 7.58v0c0 2.833-0.557 5.373-1.67 7.62-1.12 2.253-2.78 4.03-4.98 5.33-2.2 1.3-4.883 1.95-8.05 1.95zM244.5-5.75c2.167 0 3.817-0.727 4.95-2.18 1.133-1.447 1.7-3.487 1.7-6.12v0c0-2.6-0.567-4.627-1.7-6.08-1.133-1.447-2.783-2.17-4.95-2.17v0c-2.2 0-3.873 0.723-5.02 2.17-1.153 1.453-1.73 3.48-1.73 6.08v0c0 2.6 0.577 4.633 1.73 6.1 1.147 1.467 2.82 2.2 5.02 2.2zM283.7-28.15h7.7v28.15h-7.7v-2.4c-2.5 2-5.183 3-8.05 3v0c-3.667 0-6.407-0.933-8.22-2.8-1.82-1.867-2.73-4.867-2.73-9v0-16.95h7.7v16.95c0 1.667 0.377 2.907 1.13 3.72 0.747 0.82 2.003 1.23 3.77 1.23v0c2.1 0 4.233-0.9 6.4-2.7v0zM311.3 0.85c-4.567-0.033-8.067-1.36-10.5-3.98-2.433-2.613-3.65-6.27-3.65-10.97v0c0-4.667 1.217-8.3 3.65-10.9 2.433-2.6 5.933-3.917 10.5-3.95v0c1.633 0 3.043 0.107 4.23 0.32 1.18 0.22 2.42 0.58 3.72 1.08v0 7.05c-1.233-0.567-2.4-0.967-3.5-1.2-1.1-0.233-2.3-0.35-3.6-0.35v0c-2.433 0.033-4.2 0.723-5.3 2.07-1.1 1.353-1.65 3.297-1.65 5.83v0c0 5.4 2.25 8.117 6.75 8.15v0c2.3 0 4.683-0.75 7.15-2.25v0l2.2 6.45c-3.033 1.767-6.367 2.65-10 2.65zM341.95-28.75c3.667 0 6.41 0.94 8.23 2.82 1.813 1.887 2.72 4.897 2.72 9.03v0 16.9h-7.7v-16.9c0-1.667-0.367-2.91-1.1-3.73-0.733-0.813-2-1.22-3.8-1.22v0c-2.133 0-4.267 0.883-6.4 2.65v0 19.2h-7.7v-42.3h7.7v16.6c2.467-2.033 5.15-3.05 8.05-3.05z" fill="#264f0b" fill-rule="nonzero" stroke="none" stroke-width="1" stroke-linecap="butt" stroke-linejoin="miter" stroke-miterlimit="10" stroke-dasharray="" stroke-dashoffset="0" font-family="none" font-weight="none" font-size="none" text-anchor="none" style="mix-blend-mode: normal" data-fill-palette-color="secondary" id="text-1"></path></g></g><g transform="matrix(1,0,0,1,18.462663470997114,34.547463500000006)"><svg viewBox="0 0 199.16575305800578 173.04" height="173.04" width="199.16575305800578"><g><svg viewBox="0 0 316.416 274.90983665275843" height="173.04" width="199.16575305800578"><g transform="matrix(1,0,0,1,0,231.02473861313553)"><svg viewBox="0 0 316.416 43.885098039622925" height="43.885098039622925" width="316.416"><g id="textblocktransform"><svg viewBox="0 0 316.416 43.885098039622925" height="43.885098039622925" width="316.416" id="textblock"><g><svg viewBox="0 0 316.416 43.885098039622925" height="43.885098039622925" width="316.416"><g transform="matrix(1,0,0,1,0,0)"><svg width="316.416" viewBox="4.35 -42.3 312.90902870952596 43.15" height="43.885098039622925" data-palette-color="#264f0b"><g transform="matrix(1,0,0,1,0,0)"><g><svg width="5.293355443453757" viewBox="3.16 -36.36 28.68 36.36" height="6.7125646738038975" data-palette-color="#264f0b" id="scriptelement" x="308.05269098779917" y="-39.096622336901945"><path d="M10.85 0L3.16 0 3.16-36.36 17.51-36.36Q21.63-36.36 24.55-34.9 27.47-33.43 29-30.76 30.54-28.09 30.54-24.49L30.54-24.49Q30.54-20.86 28.98-18.26 27.41-15.66 24.46-14.28 21.5-12.89 17.31-12.89L17.31-12.89 7.71-12.89 7.71-19.07 16.07-19.07Q18.27-19.07 19.73-19.67 21.18-20.28 21.9-21.48 22.62-22.69 22.62-24.49L22.62-24.49Q22.62-26.3 21.9-27.54 21.18-28.78 19.72-29.43 18.25-30.08 16.03-30.08L16.03-30.08 10.85-30.08 10.85 0ZM14.51-16.55L22.8-16.55 31.84 0 23.35 0 14.51-16.55Z" opacity="1" transform="matrix(1,0,0,1,0,0)" fill="#264f0b" class="undefined-123" data-fill-palette-color="primary" id="yy-123"></path></svg></g></g><path d="M304.14-35.74C304.14-39.363 307.077-42.3 310.699-42.3 314.322-42.3 317.259-39.363 317.259-35.74 317.259-32.118 314.322-29.181 310.699-29.181 307.077-29.181 304.14-32.118 304.14-35.74ZM310.699-29.733C314.017-29.733 316.706-32.423 316.706-35.74 316.706-39.058 314.017-41.747 310.699-41.747 307.382-41.747 304.693-39.058 304.693-35.74 304.693-32.423 307.382-29.733 310.699-29.733Z" fill="#264f0b" id="scriptcircle" data-fill-palette-color="primary"></path><path d="M25.8 0L17.3-14.3 12.3-14.3 12.3 0 4.35 0 4.35-37.9 19.15-37.9Q33.1-37.9 33.1-26.05L33.1-26.05Q33.1-17.35 25.35-15.05L25.35-15.05 34.7 0 25.8 0ZM12.3-31.15L12.3-21.05 19.15-21.05Q25.05-21.05 25.05-26.05L25.05-26.05Q25.05-28.7 23.6-29.93 22.15-31.15 19.15-31.15L19.15-31.15 12.3-31.15ZM46.8-11.95Q47.7-5.6 54.7-5.6L54.7-5.6Q56.6-5.6 58.42-6.1 60.25-6.6 62.55-7.7L62.55-7.7 64.6-1.7Q62.05-0.3 59.52 0.28 57 0.85 53.7 0.85L53.7 0.85Q48.9 0.85 45.5-1.03 42.1-2.9 40.35-6.28 38.6-9.65 38.6-14.1L38.6-14.1Q38.6-18.8 40.4-22.15 42.2-25.5 45.3-27.23 48.4-28.95 52.2-28.95L52.2-28.95Q58.25-28.95 61.67-25.4 65.1-21.85 65.1-15L65.1-15 65.1-11.95 46.8-11.95ZM52.2-22.5Q50.1-22.5 48.77-21.4 47.45-20.3 46.95-17.8L46.95-17.8 57.05-17.8Q56.8-20.25 55.6-21.38 54.4-22.5 52.2-22.5L52.2-22.5ZM86.3-28.75Q91.8-28.75 94.52-25.93 97.25-23.1 97.25-16.9L97.25-16.9 97.25 0 89.55 0 89.55-16.9Q89.55-19.4 88.45-20.63 87.35-21.85 84.65-21.85L84.65-21.85Q81.45-21.85 78.25-19.2L78.25-19.2 78.25 0 70.55 0 70.55-28.15 78.25-28.15 78.25-25.7Q81.95-28.75 86.3-28.75L86.3-28.75ZM120.24-20.45L113.84-20.45 113.84-9.35Q113.84-7.6 114.42-6.9 114.99-6.2 116.49-6.2L116.49-6.2Q118.09-6.2 119.54-6.6L119.54-6.6 119.54 0Q116.64 0.65 114.49 0.65L114.49 0.65Q110.19 0.65 108.17-1.2 106.14-3.05 106.14-6.7L106.14-6.7 106.14-20.45 102.34-20.45 102.34-27.3 106.14-27.3 106.14-36.8 113.84-36.8 113.84-27.3 120.24-27.3 120.24-20.45ZM150.19-37.9L158.14-37.9 158.14 0 150.19 0 150.19-15.6 134.19-15.6 134.19 0 126.24 0 126.24-37.9 134.19-37.9 134.19-22.5 150.19-22.5 150.19-37.9ZM176.64-28.15Q181.89-28.15 184.59-26.68 187.29-25.2 188.19-22.75 189.09-20.3 189.09-16.5L189.09-16.5 189.09 0 181.39 0 181.39-2.4Q179.59-0.75 177.86-0.05 176.14 0.65 174.04 0.65L174.04 0.65Q169.44 0.65 166.74-1.88 164.04-4.4 164.04-8.85L164.04-8.85Q164.04-13.4 166.81-15.85 169.59-18.3 174.49-18.3L174.49-18.3Q178.44-18.3 181.39-16.8L181.39-16.8Q181.34-18.45 180.94-19.43 180.54-20.4 179.36-20.93 178.19-21.45 175.89-21.45L175.89-21.45 170.69-21.45 170.69-28.15 176.64-28.15ZM175.59-5.4Q178.39-5.4 181.39-7.9L181.39-7.9 181.39-11.45Q178.79-12.7 176.24-12.7L176.24-12.7Q174.24-12.7 173.04-11.8 171.84-10.9 171.84-8.95L171.84-8.95Q171.84-5.4 175.59-5.4L175.59-5.4ZM211.64-28.75L212.79-28.75 212.79-21.85 211.64-21.85Q207.69-21.85 203.79-18.95L203.79-18.95 203.79 0 196.09 0 196.09-28.15 203.79-28.15 203.79-25.45Q207.64-28.75 211.64-28.75L211.64-28.75ZM233.43-28.95Q237.18-28.95 240.08-27.28 242.98-25.6 244.61-22.25 246.23-18.9 246.23-14.05L246.23-14.05Q246.23-9.2 244.61-5.85 242.98-2.5 240.08-0.83 237.18 0.85 233.43 0.85L233.43 0.85Q229.48 0.85 225.73-2L225.73-2 225.73 0 218.03 0 218.03-42.3 225.73-42.3 225.73-26.05Q229.43-28.95 233.43-28.95L233.43-28.95ZM231.83-6Q234.98-6 236.61-8.05 238.23-10.1 238.23-14.05L238.23-14.05Q238.23-17.95 236.61-20 234.98-22.05 231.83-22.05L231.83-22.05Q228.83-22.05 225.73-19.8L225.73-19.8 225.73-8.3Q228.88-6 231.83-6L231.83-6ZM265.08 0.85Q260.33 0.85 256.98-1.1 253.63-3.05 251.96-6.43 250.28-9.8 250.28-14.05L250.28-14.05Q250.28-18.25 251.96-21.63 253.63-25 256.98-26.98 260.33-28.95 265.08-28.95L265.08-28.95Q269.83-28.95 273.13-26.98 276.43-25 278.11-21.63 279.78-18.25 279.78-14.05L279.78-14.05Q279.78-9.8 278.11-6.43 276.43-3.05 273.13-1.1 269.83 0.85 265.08 0.85L265.08 0.85ZM265.08-5.75Q268.33-5.75 270.03-7.93 271.73-10.1 271.73-14.05L271.73-14.05Q271.73-17.95 270.03-20.13 268.33-22.3 265.08-22.3L265.08-22.3Q261.78-22.3 260.06-20.13 258.33-17.95 258.33-14.05L258.33-14.05Q258.33-10.15 260.06-7.95 261.78-5.75 265.08-5.75L265.08-5.75ZM301.08-28.75L302.23-28.75 302.23-21.85 301.08-21.85Q297.13-21.85 293.23-18.95L293.23-18.95 293.23 0 285.53 0 285.53-28.15 293.23-28.15 293.23-25.45Q297.08-28.75 301.08-28.75L301.08-28.75Z" opacity="1" transform="matrix(1,0,0,1,0,0)" fill="#264f0b" class="wordmark-text-0" data-fill-palette-color="primary" id="text-0"></path></svg></g></svg></g></svg></g></svg></g><g transform="matrix(1,0,0,1,53.05584909823426,0)"><svg viewBox="0 0 210.30430180353147 210.30430180353147" height="210.30430180353147" width="210.30430180353147"><g><svg></svg></g><g id="icon-0"><svg viewBox="0 0 210.30430180353147 210.30430180353147" height="210.30430180353147" width="210.30430180353147"><g><path d="M0 105.152c0-58.074 47.078-105.152 105.152-105.152 58.074 0 105.152 47.078 105.152 105.152 0 58.074-47.078 105.152-105.152 105.152-58.074 0-105.152-47.078-105.152-105.152zM105.152 206.347c55.888 0 101.195-45.306 101.195-101.195 0-55.888-45.306-101.195-101.195-101.194-55.888 0-101.195 45.306-101.194 101.194 0 55.888 45.306 101.195 101.194 101.195z" data-fill-palette-color="tertiary" fill="#264f0b" stroke="transparent"></path></g><g transform="matrix(1,0,0,1,49.61965202962908,47.42392594107678)"><svg viewBox="0 0 111.06499774427331 115.45644992137791" height="115.45644992137791" width="111.06499774427331"><g><svg xmlns="http://www.w3.org/2000/svg" xmlns:xlink="http://www.w3.org/1999/xlink" version="1.1" x="0" y="0" viewBox="7.384975863870845 5.3999999999999995 85.23004827225832 88.6" style="enable-background:new 0 0 100 100;" xml:space="preserve" height="115.45644992137791" width="111.06499774427331" class="icon-cg-0" data-fill-palette-color="accent" id="cg-0"><path d="M92 46.6l-13-13V13c0-1.1-0.9-2-2-2H66c-1.1 0-2 0.9-2 2v5.6L51.4 6c-0.8-0.8-2.1-0.8-2.8 0L8 46.6C6.7 47.8 7.6 50 9.4 50H16v36c0 2.8 2.2 5 5 5h25l0 2c0 0.6 0.4 1 1 1h5.7c0.4 0 0.8-0.2 0.9-0.6l1.1-2.4H79c2.8 0 5-2.2 5-5V75.2c0.4-0.3 0.8-0.7 1.2-1 5.1-5.1 5.1-13.3 0-18.4-0.4-0.4-0.8-0.7-1.2-1V50h6.6C92.4 50 93.3 47.8 92 46.6zM66 13h11v18.6l-11-11V13zM46.3 87.6c-0.2 0.2-0.3 0.4-0.3 0.7l0 0.7H21c-1.7 0-3-1.3-3-3V48.7l32-32 32 32v4.8c-4.9-2.5-11.1-1.8-15.2 2.3C63.1 59.5 62 65.1 64 70L46.3 87.6zM82 86c0 1.7-1.3 3-3 3H57.6c0.1-0.1 0.1-0.1 0.2-0.2l1.3-2.5 2.5-1.3c0.2-0.1 0.4-0.3 0.4-0.4l1.2-2.4 3.1-0.6c0.2 0 0.4-0.1 0.5-0.3L71 77c3.6 1.5 7.6 1.2 11-0.5V86zM83.8 72.8c-3.3 3.3-8.3 4.2-12.5 2.2-0.4-0.2-0.8-0.1-1.1 0.2l-4.5 4.5-3.2 0.6c-0.3 0.1-0.6 0.3-0.7 0.5l-1.3 2.5-2.5 1.3c-0.2 0.1-0.4 0.3-0.4 0.4l-1.3 2.5-2.5 1.3c-0.2 0.1-0.4 0.3-0.5 0.5L52 92h-4l0-3.3 17.9-17.9c0.3-0.3 0.4-0.8 0.2-1.1-2-4.2-1.1-9.2 2.2-12.5 4.3-4.3 11.3-4.3 15.6 0S88.1 68.5 83.8 72.8zM82.7 48L50.4 15.6c-0.2-0.2-0.5-0.2-0.7 0L17.3 48H9.4L50 7.4 90.6 48H82.7zM79 66c-2.2 0-4-1.8-4-4 0-5.2 8-5.2 8 0C83 64.2 81.3 66 79 66zM79 60c-1.1 0-2 0.9-2 2 0 1.1 0.8 2 2 2 1.2 0 2-0.9 2-2C81 60.9 80.1 60 79 60zM50.9 87.3l14.8-14.8c0.5-0.5 1.2 0.2 0.7 0.7L51.6 88C51.1 88.4 50.4 87.7 50.9 87.3zM49 52H28c-0.6 0-1 0.4-1 1v21c0 0.6 0.4 1 1 1h21c0.6 0 1-0.4 1-1V53C50 52.4 49.6 52 49 52zM48 63h-9v-9h9V63zM38 54v9h-9v-9H38zM29 64h9v9h-9V64zM39 73v-9h9v9H39z" fill="#fd6c23" data-fill-palette-color="accent"></path></svg></g></svg></g></svg></g></svg></g><g></g></svg></g></svg></g></svg></g><defs></defs></svg><rect width="236.09108" height="242.134927" fill="none" stroke="none" visibility="hidden"></rect></g></svg></g></svg>